inDegrees=yes
name=ik_S57_A02_T03
DataType=double
version=3
OpenSimVersion=4.3-2021-08-27-4bc7ad9
endheader
time	pelvis_tilt	pelvis_list	pelvis_rotation	pelvis_tx	pelvis_ty	pelvis_tz	hip_flexion_r	hip_adduction_r	hip_rotation_r	knee_angle_r	knee_angle_r_beta	ankle_angle_r	subtalar_angle_r	mtp_angle_r	hip_flexion_l	hip_adduction_l	hip_rotation_l	knee_angle_l	knee_angle_l_beta	ankle_angle_l	subtalar_angle_l	mtp_angle_l	lumbar_extension	lumbar_bending	lumbar_rotation	arm_flex_r	arm_add_r	arm_rot_r	elbow_flex_r	pro_sup_r	wrist_flex_r	wrist_dev_r	arm_flex_l	arm_add_l	arm_rot_l	elbow_flex_l	pro_sup_l	wrist_flex_l	wrist_dev_l
31.67999999999941	-2.685257895966677	4.187809881196464	-81.11006018436721	0	0.9399999999999999	0	-2.907485298355346	3.714312222360133	-6.96698121906072	0.3334394885700678	0.005819616931713682	0	0	0	6.680524985929574	-1.300347058679006	7.481424471922536	13.56608758524126	0.2367728949763869	0	0	0	0	0	0	34.38191385247939	-34.38191385247949	4.612772379393911	79.9006124093691	85.38722787772792	0	0	34.38191385247939	-34.38191385247949	4.612772379393911	79.9006124093691	85.38722787765708	0	0
31.69999999999941	-2.77382344754906	4.173072484873785	-81.43127857801645	0	0.9399999999999999	0	-2.596943736352895	3.603660249932702	-6.647490982225425	0.8147998517405446	0.01422094015763415	0	0	0	6.38694019872074	-1.336440059769374	6.170674160028508	12.87605372472703	0.2247295321601662	0	0	0	0	0	0	34.38736895059761	-34.3873689505977	4.613170652789256	79.90587219398218	85.38682960435209	0	0	34.38736895059761	-34.3873689505977	4.613170652789256	79.90587219398218	85.38682960428133	0	0
31.71999999999941	-2.815315393899577	4.159774453965149	-81.68143631271073	0	0.9399999999999999	0	-2.65142946263277	3.568499789358359	-6.384982583493581	0.9270398986263602	0.01617989852838444	0	0	0	6.374061058264797	-1.411077463187297	5.918223188252068	12.87257254860703	0.2246687741750305	0	0	0	0	0	0	34.38811510061966	-34.38811510061976	4.613224344172106	79.90658118089112	85.38677591297184	0	0	34.38811510061966	-34.38811510061976	4.613224344172106	79.90658118089112	85.38677591290107	0	0
31.73999999999941	-2.807643414452117	4.16643533165222	-81.69362787694841	0	0.9399999999999999	0	-2.671917054203103	3.478643472375166	-6.355305588065362	1.168129756210005	0.02038771033638327	0	0	0	6.132915056284773	-0.7759916300439167	4.417563491096483	11.67001425462116	0.2036801724978111	0	0	0	0	0	0	34.39186056268594	-34.39186056268603	4.613493656588289	79.91013728897683	85.38650660056882	0	0	34.39186056268594	-34.39186056268603	4.613493656588289	79.91013728897683	85.38650660049812	0	0
31.75999999999941	-2.89487596867678	4.165751246637562	-82.22102482849508	0	0.9399999999999999	0	-2.714596974039426	3.449430886486553	-5.824044131174487	1.397666322658041	0.02439387917462424	0	0	0	6.117000493463427	-0.9246366627704451	3.898747517470558	11.57401350340186	0.2020046433046463	0	0	0	0	0	0	34.39264917071633	-34.39264917071642	4.613550437228888	79.91088706990364	85.38644981993099	0	0	34.39264917071633	-34.39264917071642	4.613550437228888	79.91088706990364	85.38644981986029	0	0
31.77999999999941	-3.087509134936747	4.251095793064772	-82.86489347932043	0	0.9399999999999999	0	-0.3842477858063239	3.512285725045344	-4.053643117264087	3.486244940896062	0.06084645274963139	0	0	0	6.136233040326262	-0.3745808064795835	3.701054044854151	10.91119667219556	0.190436307262461	0	0	0	0	0	0	34.46668565216724	-34.46668565216729	4.618145165821815	79.97147807977024	85.3818550915577	0	0	34.46668565216724	-34.46668565216729	4.618145165821815	79.97147807977024	85.38185509148779	0	0
31.79999999999941	-3.336276450002371	4.393790154369457	-83.45888289157446	0	0.9399999999999999	0	-0.301821263067769	3.651615237438243	-3.488526483755086	3.655124805598397	0.06379396242900968	0	0	0	6.329609400289047	-0.5627899713988918	3.117428137803584	10.60090682945862	0.1850207278712059	0	0	0	0	0	0	34.46777526869207	-34.46777526869213	4.618223692727412	79.97251498232593	85.38177656465595	0	0	34.46777526869207	-34.46777526869213	4.618223692727412	79.97251498232593	85.38177656458606	0	0
31.81999999999941	-3.336508327376577	4.385074607044763	-83.44765997938028	0	0.9399999999999999	0	1.671717141384563	3.133629085573804	-4.946751358900597	6.35803467748446	0.1109686390780796	0	0	0	6.288228843351344	-0.5227301778597681	3.138761141379886	10.39962881519182	0.1815077638103742	0	0	0	0	0	0	34.54425493252262	-34.54425493252268	4.622938651462762	80.03468752240994	85.37706160614566	0	0	34.54425493252262	-34.54425493252268	4.622938651462762	80.03468752240994	85.37706160607662	0	0
31.83999999999941	-3.603915816805509	4.554912305616965	-84.34488797995721	0	0.9399999999999999	0	2.487319727650427	3.154431509144858	-5.30575650320869	7.668557521286656	0.1338415776250273	0	0	0	6.839992999950606	0.2208692844259671	3.552690794298957	10.23362683680048	0.1786104827226208	0	0	0	0	0	0	34.54634589584328	-34.54634589584334	4.623089781302861	80.03668306206256	85.37691047631296	0	0	34.54634589584328	-34.54634589584334	4.623089781302861	80.03668306206256	85.37691047624391	0	0
31.85999999999941	-3.602998814162689	4.551441619989069	-84.34091766669276	0	0.9399999999999999	0	3.269261405885793	3.113696859681131	-6.373877485791456	8.565061922770518	0.1494885311895418	0	0	0	6.841490381453684	0.3339392666207214	3.592457581490268	9.981499625330152	0.1742100327485915	0	0	0	0	0	0	34.54915127241447	-34.54915127241453	4.623292541988875	80.03936033673061	85.37670771563687	0	0	34.54915127241447	-34.54915127241453	4.623292541988875	80.03936033673061	85.37670771556783	0	0
31.87999999999941	-4.111393847083272	5.416883663727584	-85.97000494030597	0	0.9399999999999999	0	4.848954050694585	3.557637554463655	-5.824953130844411	10.23095837643014	0.1785639093031994	0	0	0	7.867251925091278	-0.008340506186916289	2.612889364938735	9.649926541167881	0.1684229907189677	0	0	0	0	0	0	34.55165196105356	-34.55165196105362	4.623473040744541	80.04174363145054	85.37652721689007	0	0	34.55165196105356	-34.55165196105362	4.623473040744541	80.04174363145054	85.37652721682105	0	0
31.89999999999941	-4.19718091881323	5.69112664080041	-86.74542792821708	0	0.9399999999999999	0	5.924417318118929	3.710086284979611	-5.776219361961251	11.59318286405153	0.2023392117634854	0	0	0	8.175869141522927	0.2479133705749708	3.127837966654503	9.171131436027276	0.1600664396918317	0	0	0	0	0	0	34.55393963257826	-34.55393963257832	4.623638254855602	80.04392511449244	85.37636200278706	0	0	34.55393963257826	-34.55393963257832	4.623638254855602	80.04392511449244	85.37636200271805	0	0
31.91999999999941	-4.191893874745935	5.847321894131512	-87.31013049311558	0	0.9399999999999999	0	6.965071559380597	3.675259443283447	-5.480707237776289	12.48262034923374	0.2178628243705731	0	0	0	8.169520413139452	0.5034282467049422	2.724902740590877	7.870262020745136	0.1373619852566649	0	0	0	0	0	0	34.55629991832808	-34.55629991832814	4.623808361502106	80.04617115800691	85.3761918961489	0	0	34.55629991832808	-34.55629991832814	4.623808361502106	80.04617115800691	85.37619189607996	0	0
31.93999999999941	-4.139824655408894	5.784423407476864	-87.79714348838958	0	0.9399999999999999	0	6.816003035975362	3.567923817161795	-5.074715628147612	13.37782586342157	0.2334871080751596	0	0	0	7.898227992572767	0.6745658445297898	2.180616816845391	6.937715005845427	0.1210859694170204	0	0	0	0	0	0	34.55881188341854	-34.5588118834186	4.623988700141329	80.04855222478395	85.37601155751854	0	0	34.55881188341854	-34.5588118834186	4.623988700141329	80.04855222478395	85.3760115574496	0	0
